STARTFONT 2.3
FONT -FontForge-Butcherman-Book-R-Normal--8-80-72-72-P-43-ISO10646-1
SIZE 8 72 72  2
FONTBOUNDINGBOX 13 16 -1 -6
COMMENT "Generated by fontforge, http://fontforge.sourceforge.net"
COMMENT "Copyright (c) 2011, Typomondo, with Reserved Font Name  "Butcherman"."
STARTPROPERTIES 41
FOUNDRY "FontForge"
FAMILY_NAME "Butcherman"
WEIGHT_NAME "Book"
SLANT "R"
SETWIDTH_NAME "Normal"
ADD_STYLE_NAME ""
PIXEL_SIZE 8
POINT_SIZE 80
RESOLUTION_X 72
RESOLUTION_Y 72
SPACING "P"
AVERAGE_WIDTH 43
CHARSET_REGISTRY "ISO10646"
CHARSET_ENCODING "1"
FONTNAME_REGISTRY ""
CHARSET_COLLECTIONS "ISO8859-2 ISO8859-9 ISO8859-4 ISO10646-1"
BITS_PER_PIXEL 2
FONT_NAME "Butcherman-Regular"
FACE_NAME "Butcherman Regular"
COPYRIGHT "Copyright (c) 2011, Typomondo, with Reserved Font Name  "Butcherman"."
FONT_VERSION "001.004"
FONT_ASCENT 6
FONT_DESCENT 2
UNDERLINE_POSITION -1
UNDERLINE_THICKNESS 1
X_HEIGHT 5
CAP_HEIGHT 5
DEFAULT_CHAR 3
RAW_ASCENT 799
RAW_DESCENT 200
NORM_SPACE 1
RELATIVE_WEIGHT 40
RELATIVE_SETWIDTH 50
SUPERSCRIPT_X 0
SUPERSCRIPT_Y 2
SUPERSCRIPT_SIZE 4
SUBSCRIPT_X 0
SUBSCRIPT_Y 0
SUBSCRIPT_SIZE 4
AVG_LOWERCASE_WIDTH 46
AVG_UPPERCASE_WIDTH 44
ENDPROPERTIES
CHARS 331
STARTCHAR NULL.dup1
ENCODING 0
SWIDTH 161 0
DWIDTH 1 0
BBX 1 1 0 0
BITMAP
00
ENDCHAR
STARTCHAR CR
ENCODING 13
SWIDTH 161 0
DWIDTH 1 0
BBX 1 1 0 0
BITMAP
00
ENDCHAR
STARTCHAR space
ENCODING 32
SWIDTH 161 0
DWIDTH 1 0
BBX 1 1 0 0
BITMAP
00
ENDCHAR
STARTCHAR exclam
ENCODING 33
SWIDTH 350 0
DWIDTH 3 0
BBX 3 10 0 0
BITMAP
A4
B4
B4
70
70
30
10
64
74
64
ENDCHAR
STARTCHAR quotedbl
ENCODING 34
SWIDTH 541 0
DWIDTH 4 0
BBX 4 3 0 3
BITMAP
A6
66
66
ENDCHAR
STARTCHAR numbersign
ENCODING 35
SWIDTH 583 0
DWIDTH 5 0
BBX 5 7 0 -1
BITMAP
1540
6B40
7F40
2500
BA00
9900
4400
ENDCHAR
STARTCHAR dollar
ENCODING 36
SWIDTH 534 0
DWIDTH 4 0
BBX 4 10 0 -2
BITMAP
04
04
2D
BF
BF
B9
2A
7D
14
14
ENDCHAR
STARTCHAR percent
ENCODING 37
SWIDTH 828 0
DWIDTH 7 0
BBX 7 7 0 -1
BITMAP
6140
B600
A670
6674
0564
0810
0400
ENDCHAR
STARTCHAR ampersand
ENCODING 38
SWIDTH 522 0
DWIDTH 4 0
BBX 4 4 0 1
BITMAP
28
7E
7E
28
ENDCHAR
STARTCHAR quotesingle
ENCODING 39
SWIDTH 300 0
DWIDTH 2 0
BBX 2 3 0 3
BITMAP
60
70
60
ENDCHAR
STARTCHAR parenleft
ENCODING 40
SWIDTH 372 0
DWIDTH 3 0
BBX 3 8 0 -1
BITMAP
18
38
78
B0
A0
A0
74
24
ENDCHAR
STARTCHAR parenright
ENCODING 41
SWIDTH 338 0
DWIDTH 3 0
BBX 3 8 0 -1
BITMAP
50
B0
B4
34
24
30
30
90
ENDCHAR
STARTCHAR asterisk
ENCODING 42
SWIDTH 513 0
DWIDTH 4 0
BBX 4 4 0 2
BITMAP
28
7D
6D
28
ENDCHAR
STARTCHAR plus
ENCODING 43
SWIDTH 458 0
DWIDTH 4 0
BBX 4 4 0 1
BITMAP
14
79
78
14
ENDCHAR
STARTCHAR comma
ENCODING 44
SWIDTH 361 0
DWIDTH 3 0
BBX 3 4 0 -1
BITMAP
64
B4
64
14
ENDCHAR
STARTCHAR hyphen
ENCODING 45
SWIDTH 478 0
DWIDTH 4 0
BBX 4 2 0 2
BITMAP
79
68
ENDCHAR
STARTCHAR period
ENCODING 46
SWIDTH 374 0
DWIDTH 3 0
BBX 3 3 0 0
BITMAP
64
78
64
ENDCHAR
STARTCHAR slash
ENCODING 47
SWIDTH 291 0
DWIDTH 2 0
BBX 3 7 0 -1
BITMAP
14
20
20
50
80
80
40
ENDCHAR
STARTCHAR zero
ENCODING 48
SWIDTH 528 0
DWIDTH 4 0
BBX 4 7 0 -1
BITMAP
29
BE
BE
AA
6A
7D
04
ENDCHAR
STARTCHAR one
ENCODING 49
SWIDTH 366 0
DWIDTH 3 0
BBX 3 6 0 0
BITMAP
64
78
34
34
34
24
ENDCHAR
STARTCHAR two
ENCODING 50
SWIDTH 575 0
DWIDTH 5 0
BBX 5 7 0 -1
BITMAP
3D00
BF00
BF00
5A00
1D00
7F40
5500
ENDCHAR
STARTCHAR three
ENCODING 51
SWIDTH 517 0
DWIDTH 4 0
BBX 4 7 0 -1
BITMAP
68
BE
BE
5E
1A
3D
14
ENDCHAR
STARTCHAR four
ENCODING 52
SWIDTH 466 0
DWIDTH 4 0
BBX 4 8 0 -2
BITMAP
78
74
70
78
AC
BD
08
04
ENDCHAR
STARTCHAR five
ENCODING 53
SWIDTH 583 0
DWIDTH 5 0
BBX 5 7 0 -1
BITMAP
BE40
BF40
BF00
B500
1A00
3D00
1400
ENDCHAR
STARTCHAR six
ENCODING 54
SWIDTH 582 0
DWIDTH 5 0
BBX 5 7 0 -1
BITMAP
6900
BF40
BF40
7600
7B00
3B00
1900
ENDCHAR
STARTCHAR seven
ENCODING 55
SWIDTH 624 0
DWIDTH 5 0
BBX 5 7 0 -1
BITMAP
BF80
BF80
BF40
0700
0A00
0C00
1800
ENDCHAR
STARTCHAR eight
ENCODING 56
SWIDTH 459 0
DWIDTH 4 0
BBX 4 7 0 -1
BITMAP
78
BD
AD
6C
68
28
10
ENDCHAR
STARTCHAR nine
ENCODING 57
SWIDTH 584 0
DWIDTH 5 0
BBX 5 7 0 -1
BITMAP
2E00
BF40
BB40
7B40
2B00
7E00
0400
ENDCHAR
STARTCHAR colon
ENCODING 58
SWIDTH 386 0
DWIDTH 3 0
BBX 3 7 0 0
BITMAP
64
78
64
00
64
78
64
ENDCHAR
STARTCHAR semicolon
ENCODING 59
SWIDTH 375 0
DWIDTH 3 0
BBX 3 8 0 -1
BITMAP
64
78
64
00
64
78
64
14
ENDCHAR
STARTCHAR less
ENCODING 60
SWIDTH 459 0
DWIDTH 4 0
BBX 3 5 0 0
BITMAP
2C
74
B0
28
04
ENDCHAR
STARTCHAR equal
ENCODING 61
SWIDTH 485 0
DWIDTH 4 0
BBX 4 3 0 2
BITMAP
79
14
69
ENDCHAR
STARTCHAR greater
ENCODING 62
SWIDTH 432 0
DWIDTH 3 0
BBX 3 5 0 0
BITMAP
74
28
2C
74
50
ENDCHAR
STARTCHAR question
ENCODING 63
SWIDTH 577 0
DWIDTH 5 0
BBX 4 8 0 -1
BITMAP
04
7E
BF
6B
0D
08
18
18
ENDCHAR
STARTCHAR at
ENCODING 64
SWIDTH 930 0
DWIDTH 7 0
BBX 8 9 0 -2
BITMAP
0B80
2960
5BD8
8FCC
89CD
99D8
6BB8
2400
0A80
ENDCHAR
STARTCHAR A
ENCODING 65
SWIDTH 494 0
DWIDTH 4 0
BBX 4 7 0 -1
BITMAP
69
3C
3C
3C
3C
38
14
ENDCHAR
STARTCHAR B
ENCODING 66
SWIDTH 517 0
DWIDTH 4 0
BBX 4 7 0 -1
BITMAP
7E
7E
3A
39
39
39
04
ENDCHAR
STARTCHAR C
ENCODING 67
SWIDTH 504 0
DWIDTH 4 0
BBX 4 7 0 -1
BITMAP
2D
BE
BE
A5
65
3D
14
ENDCHAR
STARTCHAR D
ENCODING 68
SWIDTH 522 0
DWIDTH 4 0
BBX 4 7 0 -1
BITMAP
69
7F
7F
36
36
2D
14
ENDCHAR
STARTCHAR E
ENCODING 69
SWIDTH 570 0
DWIDTH 5 0
BBX 4 6 0 0
BITMAP
7E
7F
7A
38
34
2D
ENDCHAR
STARTCHAR F
ENCODING 70
SWIDTH 559 0
DWIDTH 4 0
BBX 4 7 0 -1
BITMAP
6A
3E
3E
39
29
34
10
ENDCHAR
STARTCHAR G
ENCODING 71
SWIDTH 499 0
DWIDTH 4 0
BBX 4 7 0 -1
BITMAP
69
BE
BE
65
6A
3E
14
ENDCHAR
STARTCHAR H
ENCODING 72
SWIDTH 726 0
DWIDTH 6 0
BBX 6 7 0 -1
BITMAP
6690
76C0
3680
3B80
2B40
2740
0100
ENDCHAR
STARTCHAR I
ENCODING 73
SWIDTH 401 0
DWIDTH 3 0
BBX 3 6 0 0
BITMAP
B8
38
34
34
34
24
ENDCHAR
STARTCHAR J
ENCODING 74
SWIDTH 455 0
DWIDTH 4 0
BBX 3 6 0 0
BITMAP
28
1C
28
28
E4
F4
ENDCHAR
STARTCHAR K
ENCODING 75
SWIDTH 580 0
DWIDTH 5 0
BBX 4 6 0 0
BITMAP
66
39
3D
2D
2D
26
ENDCHAR
STARTCHAR L
ENCODING 76
SWIDTH 416 0
DWIDTH 3 0
BBX 4 7 0 -1
BITMAP
B4
74
70
30
34
3D
04
ENDCHAR
STARTCHAR M
ENCODING 77
SWIDTH 740 0
DWIDTH 6 0
BBX 6 6 0 0
BITMAP
7AD0
7FC0
3FC0
3FC0
2AC0
2A80
ENDCHAR
STARTCHAR N
ENCODING 78
SWIDTH 610 0
DWIDTH 5 0
BBX 5 7 0 -1
BITMAP
6640
7B00
7F00
3F00
3A00
2A00
1500
ENDCHAR
STARTCHAR O
ENCODING 79
SWIDTH 504 0
DWIDTH 4 0
BBX 4 7 0 -1
BITMAP
29
BE
BE
AA
6A
7D
04
ENDCHAR
STARTCHAR P
ENCODING 80
SWIDTH 545 0
DWIDTH 4 0
BBX 4 6 0 0
BITMAP
7E
3F
3B
37
29
24
ENDCHAR
STARTCHAR Q
ENCODING 81
SWIDTH 520 0
DWIDTH 4 0
BBX 4 7 0 -1
BITMAP
29
BF
BB
B7
76
2E
06
ENDCHAR
STARTCHAR R
ENCODING 82
SWIDTH 599 0
DWIDTH 5 0
BBX 5 7 0 -1
BITMAP
6E00
3F80
3B80
2B40
2F00
2B00
0100
ENDCHAR
STARTCHAR S
ENCODING 83
SWIDTH 504 0
DWIDTH 4 0
BBX 4 7 0 -1
BITMAP
2D
BF
BE
B9
2E
7D
14
ENDCHAR
STARTCHAR T
ENCODING 84
SWIDTH 622 0
DWIDTH 5 0
BBX 5 7 0 -1
BITMAP
6E40
7F40
3F40
0D00
0D00
0D00
0800
ENDCHAR
STARTCHAR U
ENCODING 85
SWIDTH 637 0
DWIDTH 5 0
BBX 5 6 0 0
BITMAP
7640
7740
3740
3700
3B00
2A00
ENDCHAR
STARTCHAR V
ENCODING 86
SWIDTH 570 0
DWIDTH 5 0
BBX 5 7 0 -1
BITMAP
7740
7700
3A00
3900
3C00
2C00
1400
ENDCHAR
STARTCHAR W
ENCODING 87
SWIDTH 777 0
DWIDTH 6 0
BBX 6 6 0 0
BITMAP
66A0
3BD0
2F80
1F80
0E40
0A00
ENDCHAR
STARTCHAR X
ENCODING 88
SWIDTH 587 0
DWIDTH 5 0
BBX 5 7 0 -1
BITMAP
7640
2E00
1D00
1C00
1C00
1900
1000
ENDCHAR
STARTCHAR Y
ENCODING 89
SWIDTH 688 0
DWIDTH 6 0
BBX 6 6 0 0
BITMAP
7690
1F80
0F00
0700
0700
0600
ENDCHAR
STARTCHAR Z
ENCODING 90
SWIDTH 695 0
DWIDTH 6 0
BBX 6 6 0 0
BITMAP
7F90
7FC0
3F40
0A00
1C00
2E00
ENDCHAR
STARTCHAR bracketleft
ENCODING 91
SWIDTH 410 0
DWIDTH 3 0
BBX 3 7 0 0
BITMAP
78
78
60
A0
A0
60
7C
ENDCHAR
STARTCHAR backslash
ENCODING 92
SWIDTH 292 0
DWIDTH 2 0
BBX 3 7 0 -1
BITMAP
80
80
50
20
20
10
04
ENDCHAR
STARTCHAR bracketright
ENCODING 93
SWIDTH 407 0
DWIDTH 3 0
BBX 3 7 0 0
BITMAP
B8
B8
18
18
18
18
B8
ENDCHAR
STARTCHAR asciicircum
ENCODING 94
SWIDTH 523 0
DWIDTH 4 0
BBX 4 3 0 6
BITMAP
14
3D
A6
ENDCHAR
STARTCHAR underscore
ENCODING 95
SWIDTH 452 0
DWIDTH 4 0
BBX 4 2 0 -1
BITMAP
BD
10
ENDCHAR
STARTCHAR grave
ENCODING 96
SWIDTH 444 0
DWIDTH 4 0
BBX 2 2 1 6
BITMAP
80
60
ENDCHAR
STARTCHAR a
ENCODING 97
SWIDTH 479 0
DWIDTH 4 0
BBX 4 7 0 -1
BITMAP
7E
3D
3D
3D
7D
7C
14
ENDCHAR
STARTCHAR b
ENCODING 98
SWIDTH 610 0
DWIDTH 5 0
BBX 5 7 0 -1
BITMAP
6B40
3F80
3F80
2B40
2B00
2B00
0500
ENDCHAR
STARTCHAR c
ENCODING 99
SWIDTH 534 0
DWIDTH 4 0
BBX 4 7 0 -1
BITMAP
2D
BF
BF
76
75
3D
14
ENDCHAR
STARTCHAR d
ENCODING 100
SWIDTH 573 0
DWIDTH 5 0
BBX 5 7 0 -1
BITMAP
6E00
7F40
3F40
3740
2600
2A00
1500
ENDCHAR
STARTCHAR e
ENCODING 101
SWIDTH 632 0
DWIDTH 5 0
BBX 5 7 0 -1
BITMAP
6E40
7F40
3F00
3900
2900
2E00
0500
ENDCHAR
STARTCHAR f
ENCODING 102
SWIDTH 559 0
DWIDTH 4 0
BBX 4 7 0 -1
BITMAP
7A
3E
3E
39
29
34
10
ENDCHAR
STARTCHAR g
ENCODING 103
SWIDTH 546 0
DWIDTH 4 0
BBX 5 7 0 -1
BITMAP
6900
BF00
BF40
6600
7A00
3B00
1900
ENDCHAR
STARTCHAR h
ENCODING 104
SWIDTH 730 0
DWIDTH 6 0
BBX 6 7 0 -1
BITMAP
66D0
76C0
3680
3F80
2B40
2740
0100
ENDCHAR
STARTCHAR i
ENCODING 105
SWIDTH 412 0
DWIDTH 3 0
BBX 3 6 0 0
BITMAP
78
38
34
34
24
24
ENDCHAR
STARTCHAR j
ENCODING 106
SWIDTH 458 0
DWIDTH 4 0
BBX 4 6 0 0
BITMAP
29
2C
2C
1C
D8
B8
ENDCHAR
STARTCHAR k
ENCODING 107
SWIDTH 636 0
DWIDTH 5 0
BBX 5 6 0 0
BITMAP
6740
3A00
2D00
2D00
2D00
1600
ENDCHAR
STARTCHAR l
ENCODING 108
SWIDTH 438 0
DWIDTH 4 0
BBX 4 7 0 -1
BITMAP
78
74
34
34
24
2E
01
ENDCHAR
STARTCHAR m
ENCODING 109
SWIDTH 770 0
DWIDTH 6 0
BBX 6 6 0 0
BITMAP
6AD0
7FC0
7FC0
3F80
3A80
2A40
ENDCHAR
STARTCHAR n
ENCODING 110
SWIDTH 664 0
DWIDTH 5 0
BBX 5 7 0 -1
BITMAP
B680
7A80
7F40
3F40
3B00
3B00
1500
ENDCHAR
STARTCHAR o
ENCODING 111
SWIDTH 545 0
DWIDTH 4 0
BBX 5 7 0 -1
BITMAP
6D00
BF00
BF40
A700
6A00
3D00
0400
ENDCHAR
STARTCHAR p
ENCODING 112
SWIDTH 557 0
DWIDTH 4 0
BBX 5 7 0 -1
BITMAP
7E00
3F40
3B00
3700
2E00
2400
1000
ENDCHAR
STARTCHAR q
ENCODING 113
SWIDTH 562 0
DWIDTH 5 0
BBX 5 7 0 -1
BITMAP
6E00
BF40
BB40
B340
7700
2F00
0600
ENDCHAR
STARTCHAR r
ENCODING 114
SWIDTH 616 0
DWIDTH 5 0
BBX 5 7 0 -1
BITMAP
6E40
3F80
3B80
2B40
2F00
2B00
1100
ENDCHAR
STARTCHAR s
ENCODING 115
SWIDTH 481 0
DWIDTH 4 0
BBX 4 7 0 -1
BITMAP
29
BE
BE
B9
2C
7C
14
ENDCHAR
STARTCHAR t
ENCODING 116
SWIDTH 683 0
DWIDTH 5 0
BBX 5 7 0 -1
BITMAP
7F80
7F80
3F80
0A00
0A00
0A00
0500
ENDCHAR
STARTCHAR u
ENCODING 117
SWIDTH 708 0
DWIDTH 6 0
BBX 6 6 0 0
BITMAP
7590
7AC0
3A80
3A80
2A40
1B40
ENDCHAR
STARTCHAR v
ENCODING 118
SWIDTH 644 0
DWIDTH 5 0
BBX 5 7 0 -1
BITMAP
6680
3740
2B00
2B00
1E00
0D00
0400
ENDCHAR
STARTCHAR w
ENCODING 119
SWIDTH 704 0
DWIDTH 6 0
BBX 6 6 0 0
BITMAP
6590
3AC0
2F80
1F40
0F40
0A00
ENDCHAR
STARTCHAR x
ENCODING 120
SWIDTH 599 0
DWIDTH 5 0
BBX 5 7 0 -1
BITMAP
7640
2E00
1D00
1C00
1C00
1900
1000
ENDCHAR
STARTCHAR y
ENCODING 121
SWIDTH 604 0
DWIDTH 5 0
BBX 5 7 0 -1
BITMAP
7640
2E00
1D00
0D00
0D00
0C00
0400
ENDCHAR
STARTCHAR z
ENCODING 122
SWIDTH 622 0
DWIDTH 5 0
BBX 5 6 0 0
BITMAP
7F40
7F40
3F00
0D00
0800
1E00
ENDCHAR
STARTCHAR braceleft
ENCODING 123
SWIDTH 372 0
DWIDTH 3 0
BBX 3 8 0 -1
BITMAP
18
38
78
B0
A0
A0
74
24
ENDCHAR
STARTCHAR bar
ENCODING 124
SWIDTH 208 0
DWIDTH 2 0
BBX 1 7 0 -1
BITMAP
80
40
40
40
40
40
40
ENDCHAR
STARTCHAR braceright
ENCODING 125
SWIDTH 338 0
DWIDTH 3 0
BBX 3 8 0 -1
BITMAP
50
B0
B4
34
24
30
30
90
ENDCHAR
STARTCHAR asciitilde
ENCODING 126
SWIDTH 535 0
DWIDTH 4 0
BBX 4 2 0 4
BITMAP
AE
15
ENDCHAR
STARTCHAR exclamdown
ENCODING 161
SWIDTH 347 0
DWIDTH 3 0
BBX 3 10 0 0
BITMAP
64
74
64
10
30
30
70
B4
B4
64
ENDCHAR
STARTCHAR cent
ENCODING 162
SWIDTH 552 0
DWIDTH 4 0
BBX 4 11 0 -3
BITMAP
04
04
2E
BF
BF
76
75
3D
08
04
04
ENDCHAR
STARTCHAR sterling
ENCODING 163
SWIDTH 589 0
DWIDTH 5 0
BBX 5 7 0 -1
BITMAP
6900
BF40
BF40
7600
7400
3E00
1500
ENDCHAR
STARTCHAR yen
ENCODING 165
SWIDTH 692 0
DWIDTH 6 0
BBX 5 7 0 0
BITMAP
7680
2B40
1F40
5F40
5B40
0600
0100
ENDCHAR
STARTCHAR brokenbar
ENCODING 166
SWIDTH 201 0
DWIDTH 2 0
BBX 1 8 0 -1
BITMAP
40
80
80
00
00
40
40
40
ENDCHAR
STARTCHAR section
ENCODING 167
SWIDTH 477 0
DWIDTH 4 0
BBX 4 8 0 -2
BITMAP
2D
7D
79
7C
A8
78
68
10
ENDCHAR
STARTCHAR dieresis
ENCODING 168
SWIDTH 633 0
DWIDTH 5 0
BBX 5 3 0 6
BITMAP
1100
7740
6240
ENDCHAR
STARTCHAR copyright
ENCODING 169
SWIDTH 783 0
DWIDTH 6 0
BBX 6 7 0 -1
BITMAP
1A40
5F50
9F50
8D50
4E10
2690
0640
ENDCHAR
STARTCHAR guillemotleft
ENCODING 171
SWIDTH 759 0
DWIDTH 6 0
BBX 6 5 0 0
BITMAP
29D0
76C0
B380
29C0
0450
ENDCHAR
STARTCHAR uni00AD
ENCODING 173
SWIDTH 446 0
DWIDTH 4 0
BBX 3 2 0 2
BITMAP
14
68
ENDCHAR
STARTCHAR registered
ENCODING 174
SWIDTH 780 0
DWIDTH 6 0
BBX 6 7 0 -1
BITMAP
2940
6F50
8E50
4F50
4A50
2590
0500
ENDCHAR
STARTCHAR macron
ENCODING 175
SWIDTH 446 0
DWIDTH 4 0
BBX 3 2 0 2
BITMAP
14
68
ENDCHAR
STARTCHAR acute
ENCODING 180
SWIDTH 439 0
DWIDTH 4 0
BBX 3 2 0 6
BITMAP
18
64
ENDCHAR
STARTCHAR mu
ENCODING 181
SWIDTH 679 0
DWIDTH 5 0
BBX 6 6 0 0
BITMAP
7690
76C0
7680
3740
3B40
2B00
ENDCHAR
STARTCHAR paragraph
ENCODING 182
SWIDTH 591 0
DWIDTH 5 0
BBX 5 6 0 0
BITMAP
6F40
BE00
BA00
6A00
0500
0500
ENDCHAR
STARTCHAR periodcentered
ENCODING 183
SWIDTH 388 0
DWIDTH 3 0
BBX 3 3 0 2
BITMAP
10
78
78
ENDCHAR
STARTCHAR cedilla
ENCODING 184
SWIDTH 270 0
DWIDTH 2 0
BBX 2 3 0 -3
BITMAP
50
60
50
ENDCHAR
STARTCHAR guillemotright
ENCODING 187
SWIDTH 767 0
DWIDTH 6 0
BBX 6 5 0 0
BITMAP
7680
28D0
2CA0
75D0
5140
ENDCHAR
STARTCHAR Agrave
ENCODING 192
SWIDTH 494 0
DWIDTH 4 0
BBX 4 9 0 -1
BITMAP
90
60
69
3C
3C
3C
3C
38
14
ENDCHAR
STARTCHAR Aacute
ENCODING 193
SWIDTH 494 0
DWIDTH 4 0
BBX 5 9 0 -1
BITMAP
0240
0A40
6900
3C00
3C00
3C00
3C00
3800
1400
ENDCHAR
STARTCHAR Acircumflex
ENCODING 194
SWIDTH 494 0
DWIDTH 4 0
BBX 4 11 0 -1
BITMAP
14
7C
9A
00
69
3C
3C
3C
3C
38
14
ENDCHAR
STARTCHAR Atilde
ENCODING 195
SWIDTH 494 0
DWIDTH 4 0
BBX 4 9 0 -1
BITMAP
AE
25
69
3C
3C
3C
3C
38
14
ENDCHAR
STARTCHAR Adieresis
ENCODING 196
SWIDTH 494 0
DWIDTH 4 0
BBX 4 10 0 -1
BITMAP
45
EB
95
69
3C
3C
3C
3C
38
14
ENDCHAR
STARTCHAR Aring
ENCODING 197
SWIDTH 494 0
DWIDTH 4 0
BBX 4 10 0 -1
BITMAP
14
28
14
69
3C
3C
3C
3C
38
14
ENDCHAR
STARTCHAR AE
ENCODING 198
SWIDTH 733 0
DWIDTH 6 0
BBX 6 7 0 -1
BITMAP
6F90
3FC0
3E80
2E40
3E40
3F80
1540
ENDCHAR
STARTCHAR Ccedilla
ENCODING 199
SWIDTH 504 0
DWIDTH 4 0
BBX 4 10 0 -4
BITMAP
2D
BE
BE
A5
65
3D
14
08
06
05
ENDCHAR
STARTCHAR Egrave
ENCODING 200
SWIDTH 570 0
DWIDTH 5 0
BBX 4 8 0 0
BITMAP
90
64
7E
7F
7A
38
34
2D
ENDCHAR
STARTCHAR Eacute
ENCODING 201
SWIDTH 570 0
DWIDTH 5 0
BBX 5 8 0 0
BITMAP
0180
0640
7E00
7F00
7A00
3800
3400
2D00
ENDCHAR
STARTCHAR Ecircumflex
ENCODING 202
SWIDTH 570 0
DWIDTH 5 0
BBX 4 10 0 0
BITMAP
14
3D
67
00
7E
7F
7A
38
34
2D
ENDCHAR
STARTCHAR Edieresis
ENCODING 203
SWIDTH 570 0
DWIDTH 5 0
BBX 5 9 0 0
BITMAP
1100
B740
6600
7E00
7F00
7A00
3800
3400
2D00
ENDCHAR
STARTCHAR Igrave
ENCODING 204
SWIDTH 401 0
DWIDTH 3 0
BBX 4 8 -1 0
BITMAP
60
68
2E
0E
0D
0D
0D
09
ENDCHAR
STARTCHAR Iacute
ENCODING 205
SWIDTH 401 0
DWIDTH 3 0
BBX 4 8 0 0
BITMAP
06
19
B8
38
34
34
34
24
ENDCHAR
STARTCHAR Icircumflex
ENCODING 206
SWIDTH 401 0
DWIDTH 3 0
BBX 3 10 0 0
BITMAP
10
B8
9C
00
B8
38
34
34
34
24
ENDCHAR
STARTCHAR Idieresis
ENCODING 207
SWIDTH 401 0
DWIDTH 3 0
BBX 5 9 -1 0
BITMAP
1100
7780
6240
2E00
0E00
0D00
0D00
0D00
0900
ENDCHAR
STARTCHAR Eth
ENCODING 208
SWIDTH 530 0
DWIDTH 4 0
BBX 5 7 0 -1
BITMAP
6E00
3F40
3F40
7A00
2600
2E00
1400
ENDCHAR
STARTCHAR Ntilde
ENCODING 209
SWIDTH 610 0
DWIDTH 5 0
BBX 5 9 0 -1
BITMAP
6B00
2500
6640
7B00
7F00
3F00
3A00
2A00
1500
ENDCHAR
STARTCHAR Ograve
ENCODING 210
SWIDTH 504 0
DWIDTH 4 0
BBX 4 9 0 -1
BITMAP
90
60
29
BE
BE
AA
6A
7D
04
ENDCHAR
STARTCHAR Oacute
ENCODING 211
SWIDTH 504 0
DWIDTH 4 0
BBX 5 9 0 -1
BITMAP
0240
0A40
2900
BE00
BE00
AA00
6A00
7D00
0400
ENDCHAR
STARTCHAR Ocircumflex
ENCODING 212
SWIDTH 504 0
DWIDTH 4 0
BBX 4 11 0 -1
BITMAP
14
7C
9A
00
29
BE
BE
AA
6A
7D
04
ENDCHAR
STARTCHAR Otilde
ENCODING 213
SWIDTH 504 0
DWIDTH 4 0
BBX 4 9 0 -1
BITMAP
AD
54
29
BE
BE
AA
6A
7D
04
ENDCHAR
STARTCHAR Odieresis
ENCODING 214
SWIDTH 504 0
DWIDTH 4 0
BBX 4 10 0 -1
BITMAP
45
EB
95
29
BE
BE
AA
6A
7D
04
ENDCHAR
STARTCHAR multiply
ENCODING 215
SWIDTH 359 0
DWIDTH 3 0
BBX 3 4 0 1
BITMAP
54
B8
B8
44
ENDCHAR
STARTCHAR Oslash
ENCODING 216
SWIDTH 658 0
DWIDTH 5 0
BBX 5 7 0 -1
BITMAP
2E00
7F40
7B40
7B00
3700
7E00
0400
ENDCHAR
STARTCHAR Ugrave
ENCODING 217
SWIDTH 637 0
DWIDTH 5 0
BBX 5 8 0 0
BITMAP
6000
6800
7640
7740
3740
3700
3B00
2A00
ENDCHAR
STARTCHAR Uacute
ENCODING 218
SWIDTH 637 0
DWIDTH 5 0
BBX 5 8 0 0
BITMAP
0180
0240
7640
7740
3740
3700
3B00
2A00
ENDCHAR
STARTCHAR Ucircumflex
ENCODING 219
SWIDTH 637 0
DWIDTH 5 0
BBX 5 10 0 0
BITMAP
0400
2E00
2700
0000
7640
7740
3740
3700
3B00
2A00
ENDCHAR
STARTCHAR Udieresis
ENCODING 220
SWIDTH 637 0
DWIDTH 5 0
BBX 5 9 0 0
BITMAP
1140
7780
2240
7640
7740
3740
3700
3B00
2A00
ENDCHAR
STARTCHAR Yacute
ENCODING 221
SWIDTH 688 0
DWIDTH 6 0
BBX 6 8 0 0
BITMAP
0080
0240
7690
1F80
0F00
0700
0700
0600
ENDCHAR
STARTCHAR Thorn
ENCODING 222
SWIDTH 521 0
DWIDTH 4 0
BBX 4 9 0 -1
BITMAP
50
B4
BE
BF
7B
76
39
30
10
ENDCHAR
STARTCHAR germandbls
ENCODING 223
SWIDTH 546 0
DWIDTH 4 0
BBX 4 7 0 -1
BITMAP
6A
BF
BB
BA
79
79
14
ENDCHAR
STARTCHAR agrave
ENCODING 224
SWIDTH 479 0
DWIDTH 4 0
BBX 4 9 0 -1
BITMAP
90
64
7E
3D
3D
3D
7D
7C
14
ENDCHAR
STARTCHAR aacute
ENCODING 225
SWIDTH 479 0
DWIDTH 4 0
BBX 5 9 0 -1
BITMAP
0240
0A40
7E00
3D00
3D00
3D00
7D00
7C00
1400
ENDCHAR
STARTCHAR acircumflex
ENCODING 226
SWIDTH 479 0
DWIDTH 4 0
BBX 4 11 0 -1
BITMAP
14
3C
96
00
7E
3D
3D
3D
7D
7C
14
ENDCHAR
STARTCHAR atilde
ENCODING 227
SWIDTH 479 0
DWIDTH 4 0
BBX 4 9 0 -1
BITMAP
AE
65
7E
3D
3D
3D
7D
7C
14
ENDCHAR
STARTCHAR adieresis
ENCODING 228
SWIDTH 479 0
DWIDTH 4 0
BBX 4 10 0 -1
BITMAP
41
EB
56
7E
3D
3D
3D
7D
7C
14
ENDCHAR
STARTCHAR aring
ENCODING 229
SWIDTH 479 0
DWIDTH 4 0
BBX 4 10 0 -1
BITMAP
14
28
14
7E
3D
3D
3D
7D
7C
14
ENDCHAR
STARTCHAR ae
ENCODING 230
SWIDTH 755 0
DWIDTH 6 0
BBX 6 7 0 -1
BITMAP
7F90
3FD0
3FC0
3E40
3B40
3F80
1540
ENDCHAR
STARTCHAR ccedilla
ENCODING 231
SWIDTH 534 0
DWIDTH 4 0
BBX 4 9 0 -3
BITMAP
2D
BF
BF
76
75
3D
1C
09
05
ENDCHAR
STARTCHAR egrave
ENCODING 232
SWIDTH 632 0
DWIDTH 5 0
BBX 5 9 0 -1
BITMAP
6000
6800
6E40
7F40
3F00
3900
2900
2E00
0500
ENDCHAR
STARTCHAR eacute
ENCODING 233
SWIDTH 632 0
DWIDTH 5 0
BBX 5 9 0 -1
BITMAP
0180
0640
6E40
7F40
3F00
3900
2900
2E00
0500
ENDCHAR
STARTCHAR ecircumflex
ENCODING 234
SWIDTH 632 0
DWIDTH 5 0
BBX 5 11 0 -1
BITMAP
0400
2E00
2700
0000
6E40
7F40
3F00
3900
2900
2E00
0500
ENDCHAR
STARTCHAR edieresis
ENCODING 235
SWIDTH 632 0
DWIDTH 5 0
BBX 5 10 0 -1
BITMAP
1100
7740
6240
6E40
7F40
3F00
3900
2900
2E00
0500
ENDCHAR
STARTCHAR igrave
ENCODING 236
SWIDTH 411 0
DWIDTH 3 0
BBX 4 8 -1 0
BITMAP
60
68
1E
0E
0D
0D
09
09
ENDCHAR
STARTCHAR iacute
ENCODING 237
SWIDTH 411 0
DWIDTH 3 0
BBX 4 8 0 0
BITMAP
06
09
78
38
34
34
24
24
ENDCHAR
STARTCHAR icircumflex
ENCODING 238
SWIDTH 411 0
DWIDTH 3 0
BBX 4 10 0 0
BITMAP
14
7C
99
00
78
38
34
34
24
24
ENDCHAR
STARTCHAR idieresis
ENCODING 239
SWIDTH 411 0
DWIDTH 3 0
BBX 5 9 -1 0
BITMAP
1140
7780
2240
1E00
0E00
0D00
0D00
0900
0900
ENDCHAR
STARTCHAR eth
ENCODING 240
SWIDTH 530 0
DWIDTH 4 0
BBX 5 7 0 -1
BITMAP
6E00
3F40
3F40
7A00
2600
2E00
1400
ENDCHAR
STARTCHAR ntilde
ENCODING 241
SWIDTH 664 0
DWIDTH 5 0
BBX 5 9 0 -1
BITMAP
3B40
1500
B680
7A80
7F40
3F40
3B00
3B00
1500
ENDCHAR
STARTCHAR ograve
ENCODING 242
SWIDTH 545 0
DWIDTH 4 0
BBX 5 9 0 -1
BITMAP
9000
6400
6D00
BF00
BF40
A700
6A00
3D00
0400
ENDCHAR
STARTCHAR oacute
ENCODING 243
SWIDTH 545 0
DWIDTH 4 0
BBX 5 9 0 -1
BITMAP
0240
0640
6D00
BF00
BF40
A700
6A00
3D00
0400
ENDCHAR
STARTCHAR ocircumflex
ENCODING 244
SWIDTH 545 0
DWIDTH 4 0
BBX 5 11 0 -1
BITMAP
1400
3D00
6600
0000
6D00
BF00
BF40
A700
6A00
3D00
0400
ENDCHAR
STARTCHAR otilde
ENCODING 245
SWIDTH 545 0
DWIDTH 4 0
BBX 5 9 0 -1
BITMAP
AE00
2500
6D00
BF00
BF40
A700
6A00
3D00
0400
ENDCHAR
STARTCHAR odieresis
ENCODING 246
SWIDTH 545 0
DWIDTH 4 0
BBX 5 10 0 -1
BITMAP
4100
AB00
5600
6D00
BF00
BF40
A700
6A00
3D00
0400
ENDCHAR
STARTCHAR oslash
ENCODING 248
SWIDTH 676 0
DWIDTH 5 0
BBX 5 7 0 -1
BITMAP
2D40
BF40
BF00
7B00
7A00
7E00
0400
ENDCHAR
STARTCHAR ugrave
ENCODING 249
SWIDTH 708 0
DWIDTH 6 0
BBX 6 8 0 0
BITMAP
2400
1800
7590
7AC0
3A80
3A80
2A40
1B40
ENDCHAR
STARTCHAR uacute
ENCODING 250
SWIDTH 708 0
DWIDTH 6 0
BBX 6 8 0 0
BITMAP
0080
0240
7590
7AC0
3A80
3A80
2A40
1B40
ENDCHAR
STARTCHAR ucircumflex
ENCODING 251
SWIDTH 708 0
DWIDTH 6 0
BBX 6 10 0 0
BITMAP
0500
1F00
2640
0000
7590
7AC0
3A80
3A80
2A40
1B40
ENDCHAR
STARTCHAR udieresis
ENCODING 252
SWIDTH 708 0
DWIDTH 6 0
BBX 6 9 0 0
BITMAP
1140
3AC0
2540
7590
7AC0
3A80
3A80
2A40
1B40
ENDCHAR
STARTCHAR yacute
ENCODING 253
SWIDTH 604 0
DWIDTH 5 0
BBX 5 9 0 -1
BITMAP
0180
0640
7640
2E00
1D00
0D00
0D00
0C00
0400
ENDCHAR
STARTCHAR thorn
ENCODING 254
SWIDTH 498 0
DWIDTH 4 0
BBX 4 9 0 -1
BITMAP
50
B0
BD
BE
7A
76
39
30
10
ENDCHAR
STARTCHAR ydieresis
ENCODING 255
SWIDTH 604 0
DWIDTH 5 0
BBX 5 10 0 -1
BITMAP
1140
7780
2640
7640
2E00
1D00
0D00
0D00
0C00
0400
ENDCHAR
STARTCHAR Amacron
ENCODING 256
SWIDTH 494 0
DWIDTH 4 0
BBX 4 9 0 -1
BITMAP
14
69
69
3C
3C
3C
3C
38
14
ENDCHAR
STARTCHAR amacron
ENCODING 257
SWIDTH 479 0
DWIDTH 4 0
BBX 4 9 0 -1
BITMAP
14
69
7E
3D
3D
3D
7D
7C
14
ENDCHAR
STARTCHAR Abreve
ENCODING 258
SWIDTH 494 0
DWIDTH 4 0
BBX 4 10 0 -1
BITMAP
21
3E
04
69
3C
3C
3C
3C
38
14
ENDCHAR
STARTCHAR abreve
ENCODING 259
SWIDTH 479 0
DWIDTH 4 0
BBX 4 10 0 -1
BITMAP
21
3E
04
7E
3D
3D
3D
7D
7C
14
ENDCHAR
STARTCHAR Aogonek
ENCODING 260
SWIDTH 494 0
DWIDTH 4 0
BBX 4 10 0 -4
BITMAP
69
3C
3C
3C
3C
38
18
18
1E
05
ENDCHAR
STARTCHAR aogonek
ENCODING 261
SWIDTH 479 0
DWIDTH 4 0
BBX 4 9 0 -3
BITMAP
7E
3D
3D
3D
7D
7C
18
09
07
ENDCHAR
STARTCHAR Cacute
ENCODING 262
SWIDTH 504 0
DWIDTH 4 0
BBX 4 9 0 -1
BITMAP
06
09
2D
BE
BE
A5
65
3D
14
ENDCHAR
STARTCHAR cacute
ENCODING 263
SWIDTH 534 0
DWIDTH 4 0
BBX 4 9 0 -1
BITMAP
02
09
2D
BF
BF
76
75
3D
14
ENDCHAR
STARTCHAR Ccircumflex
ENCODING 264
SWIDTH 504 0
DWIDTH 4 0
BBX 4 11 0 -1
BITMAP
14
3D
66
00
2D
BE
BE
A5
65
3D
14
ENDCHAR
STARTCHAR ccircumflex
ENCODING 265
SWIDTH 534 0
DWIDTH 4 0
BBX 4 11 0 -1
BITMAP
04
2E
27
00
2D
BF
BF
76
75
3D
14
ENDCHAR
STARTCHAR Cdotaccent
ENCODING 266
SWIDTH 504 0
DWIDTH 4 0
BBX 4 11 0 -1
BITMAP
04
3C
2D
00
2D
BE
BE
A5
65
3D
14
ENDCHAR
STARTCHAR cdotaccent
ENCODING 267
SWIDTH 534 0
DWIDTH 4 0
BBX 4 11 0 -1
BITMAP
04
2D
2D
00
2D
BF
BF
76
75
3D
14
ENDCHAR
STARTCHAR Ccaron
ENCODING 268
SWIDTH 504 0
DWIDTH 4 0
BBX 4 11 0 -1
BITMAP
41
6A
3D
14
2D
BE
BE
A5
65
3D
14
ENDCHAR
STARTCHAR ccaron
ENCODING 269
SWIDTH 534 0
DWIDTH 4 0
BBX 4 11 0 -1
BITMAP
11
77
2D
04
2D
BF
BF
76
75
3D
14
ENDCHAR
STARTCHAR Dcaron
ENCODING 270
SWIDTH 522 0
DWIDTH 4 0
BBX 4 11 0 -1
BITMAP
11
37
2E
04
69
7F
7F
36
36
2D
14
ENDCHAR
STARTCHAR dcaron
ENCODING 271
SWIDTH 522 0
DWIDTH 4 0
BBX 4 11 0 -1
BITMAP
11
37
2E
04
69
7F
7F
36
36
2D
14
ENDCHAR
STARTCHAR Eth.dup2
ENCODING 272
SWIDTH 530 0
DWIDTH 4 0
BBX 5 7 0 -1
BITMAP
6E00
3F40
3F40
7A00
2600
2E00
1400
ENDCHAR
STARTCHAR Emacron
ENCODING 274
SWIDTH 570 0
DWIDTH 5 0
BBX 4 8 0 0
BITMAP
15
29
7E
7F
7A
38
34
2D
ENDCHAR
STARTCHAR emacron
ENCODING 275
SWIDTH 632 0
DWIDTH 5 0
BBX 5 9 0 -1
BITMAP
1500
2900
6E40
7F40
3F00
3900
2900
2E00
0500
ENDCHAR
STARTCHAR Ebreve
ENCODING 276
SWIDTH 570 0
DWIDTH 5 0
BBX 4 9 0 0
BITMAP
21
2F
05
7E
7F
7A
38
34
2D
ENDCHAR
STARTCHAR ebreve
ENCODING 277
SWIDTH 632 0
DWIDTH 5 0
BBX 5 10 0 -1
BITMAP
1540
1F40
0100
6E40
7F40
3F00
3900
2900
2E00
0500
ENDCHAR
STARTCHAR Edotaccent
ENCODING 278
SWIDTH 570 0
DWIDTH 5 0
BBX 4 10 0 0
BITMAP
04
2D
2D
00
7E
7F
7A
38
34
2D
ENDCHAR
STARTCHAR edotaccent
ENCODING 279
SWIDTH 632 0
DWIDTH 5 0
BBX 5 11 0 -1
BITMAP
0400
2D00
1D00
0000
6E40
7F40
3F00
3900
2900
2E00
0500
ENDCHAR
STARTCHAR Eogonek
ENCODING 280
SWIDTH 513 0
DWIDTH 4 0
BBX 4 9 0 -3
BITMAP
7E
7F
7A
38
34
3D
08
0D
06
ENDCHAR
STARTCHAR eogonek
ENCODING 281
SWIDTH 632 0
DWIDTH 5 0
BBX 5 9 0 -3
BITMAP
6E40
7F40
3F00
3900
2900
2E00
0900
0640
0240
ENDCHAR
STARTCHAR Ecaron
ENCODING 282
SWIDTH 570 0
DWIDTH 5 0
BBX 4 10 0 0
BITMAP
11
37
2E
04
7E
7F
7A
38
34
2D
ENDCHAR
STARTCHAR ecaron
ENCODING 283
SWIDTH 632 0
DWIDTH 5 0
BBX 5 11 0 -1
BITMAP
1000
2640
1F00
0500
6E40
7F40
3F00
3900
2900
2E00
0500
ENDCHAR
STARTCHAR Gcircumflex
ENCODING 284
SWIDTH 499 0
DWIDTH 4 0
BBX 4 11 0 -1
BITMAP
14
7C
9A
00
69
BE
BE
65
6A
3E
14
ENDCHAR
STARTCHAR gcircumflex
ENCODING 285
SWIDTH 546 0
DWIDTH 4 0
BBX 5 11 0 -1
BITMAP
1400
3D00
6600
0000
6900
BF00
BF40
6600
7A00
3B00
1900
ENDCHAR
STARTCHAR Gbreve
ENCODING 286
SWIDTH 499 0
DWIDTH 4 0
BBX 4 10 0 -1
BITMAP
55
3D
04
69
BE
BE
65
6A
3E
14
ENDCHAR
STARTCHAR gbreve
ENCODING 287
SWIDTH 546 0
DWIDTH 4 0
BBX 5 10 0 -1
BITMAP
2100
3E00
0400
6900
BF00
BF40
6600
7A00
3B00
1900
ENDCHAR
STARTCHAR Gdotaccent
ENCODING 288
SWIDTH 499 0
DWIDTH 4 0
BBX 4 11 0 -1
BITMAP
14
3C
3C
00
69
BE
BE
65
6A
3E
14
ENDCHAR
STARTCHAR gdotaccent
ENCODING 289
SWIDTH 546 0
DWIDTH 4 0
BBX 5 11 0 -1
BITMAP
1400
3C00
2C00
0000
6900
BF00
BF40
6600
7A00
3B00
1900
ENDCHAR
STARTCHAR Gcommaaccent
ENCODING 290
SWIDTH 499 0
DWIDTH 4 0
BBX 4 11 0 -5
BITMAP
69
BE
BE
65
6A
3E
14
18
2D
09
08
ENDCHAR
STARTCHAR Hcircumflex
ENCODING 292
SWIDTH 726 0
DWIDTH 6 0
BBX 6 11 0 -1
BITMAP
0500
1F00
2640
0000
6690
76C0
3680
3B80
2B40
2740
0100
ENDCHAR
STARTCHAR hcircumflex
ENCODING 293
SWIDTH 730 0
DWIDTH 6 0
BBX 6 11 0 -1
BITMAP
0500
1F00
2640
0000
66D0
76C0
3680
3F80
2B40
2740
0100
ENDCHAR
STARTCHAR hbar
ENCODING 295
SWIDTH 704 0
DWIDTH 6 0
BBX 6 7 0 -1
BITMAP
66D0
7FC0
3B80
3B40
2B40
2740
0100
ENDCHAR
STARTCHAR Itilde
ENCODING 296
SWIDTH 401 0
DWIDTH 3 0
BBX 4 8 -1 0
BITMAP
6B
15
2E
0E
0D
0D
0D
09
ENDCHAR
STARTCHAR itilde
ENCODING 297
SWIDTH 411 0
DWIDTH 3 0
BBX 4 8 -1 0
BITMAP
7B
15
1E
0E
0D
0D
09
09
ENDCHAR
STARTCHAR Imacron
ENCODING 298
SWIDTH 401 0
DWIDTH 3 0
BBX 3 8 0 0
BITMAP
54
68
B8
38
34
34
34
24
ENDCHAR
STARTCHAR imacron
ENCODING 299
SWIDTH 411 0
DWIDTH 3 0
BBX 3 8 0 0
BITMAP
54
68
78
38
34
34
24
24
ENDCHAR
STARTCHAR Ibreve
ENCODING 300
SWIDTH 401 0
DWIDTH 3 0
BBX 3 9 0 0
BITMAP
54
7C
04
B8
38
34
34
34
24
ENDCHAR
STARTCHAR ibreve
ENCODING 301
SWIDTH 411 0
DWIDTH 3 0
BBX 3 9 0 0
BITMAP
84
7C
04
78
38
34
34
24
24
ENDCHAR
STARTCHAR Iogonek
ENCODING 302
SWIDTH 401 0
DWIDTH 3 0
BBX 3 9 0 -3
BITMAP
B8
38
34
34
34
24
20
20
2C
ENDCHAR
STARTCHAR iogonek
ENCODING 303
SWIDTH 412 0
DWIDTH 3 0
BBX 3 9 0 -3
BITMAP
78
38
34
34
24
24
30
30
2C
ENDCHAR
STARTCHAR Idotaccent
ENCODING 304
SWIDTH 401 0
DWIDTH 3 0
BBX 3 10 0 0
BITMAP
10
78
78
00
B8
38
34
34
34
24
ENDCHAR
STARTCHAR dotlessi
ENCODING 305
SWIDTH 411 0
DWIDTH 3 0
BBX 3 6 0 0
BITMAP
78
38
34
34
24
24
ENDCHAR
STARTCHAR IJ
ENCODING 306
SWIDTH 908 0
DWIDTH 7 0
BBX 7 6 0 0
BITMAP
B828
3838
3834
3834
3570
25F0
ENDCHAR
STARTCHAR ij
ENCODING 307
SWIDTH 901 0
DWIDTH 7 0
BBX 7 6 0 0
BITMAP
7878
3838
3834
3834
25B4
25F0
ENDCHAR
STARTCHAR Jcircumflex
ENCODING 308
SWIDTH 455 0
DWIDTH 4 0
BBX 4 10 0 0
BITMAP
14
3D
66
00
28
1C
28
28
E4
F4
ENDCHAR
STARTCHAR jcircumflex
ENCODING 309
SWIDTH 458 0
DWIDTH 4 0
BBX 4 10 0 0
BITMAP
14
3D
66
00
29
2C
2C
1C
D8
B8
ENDCHAR
STARTCHAR Kcommaaccent
ENCODING 310
SWIDTH 580 0
DWIDTH 5 0
BBX 4 11 0 -5
BITMAP
66
39
3D
2D
2D
26
00
19
1E
05
05
ENDCHAR
STARTCHAR kcommaaccent
ENCODING 311
SWIDTH 636 0
DWIDTH 5 0
BBX 5 11 0 -5
BITMAP
6740
3A00
2D00
2D00
2D00
1600
0000
0900
0E00
0600
0100
ENDCHAR
STARTCHAR kgreenlandic
ENCODING 312
SWIDTH 636 0
DWIDTH 5 0
BBX 5 6 0 0
BITMAP
6740
3A00
2D00
2D00
2D00
1600
ENDCHAR
STARTCHAR Lacute
ENCODING 313
SWIDTH 416 0
DWIDTH 3 0
BBX 4 9 0 -1
BITMAP
06
09
B4
74
70
30
34
3D
04
ENDCHAR
STARTCHAR lacute
ENCODING 314
SWIDTH 438 0
DWIDTH 4 0
BBX 4 9 0 -1
BITMAP
02
09
78
74
34
34
24
2E
01
ENDCHAR
STARTCHAR Lcommaaccent
ENCODING 315
SWIDTH 416 0
DWIDTH 3 0
BBX 4 11 0 -5
BITMAP
B4
74
70
30
34
3D
04
28
3C
18
04
ENDCHAR
STARTCHAR lcommaaccent
ENCODING 316
SWIDTH 438 0
DWIDTH 4 0
BBX 4 11 0 -5
BITMAP
78
74
34
34
24
2E
01
28
3C
1C
08
ENDCHAR
STARTCHAR Lcaron
ENCODING 317
SWIDTH 714 0
DWIDTH 6 0
BBX 6 7 0 -1
BITMAP
B590
76D0
7190
3090
3400
3D00
0400
ENDCHAR
STARTCHAR lcaron
ENCODING 318
SWIDTH 782 0
DWIDTH 6 0
BBX 6 7 0 -1
BITMAP
78A0
74F0
34B0
3420
2400
2E00
0100
ENDCHAR
STARTCHAR Ldotaccent
ENCODING 319
SWIDTH 567 0
DWIDTH 5 0
BBX 5 7 0 -1
BITMAP
B400
7680
77C0
3680
3400
3D00
0400
ENDCHAR
STARTCHAR ldot
ENCODING 320
SWIDTH 660 0
DWIDTH 5 0
BBX 6 7 0 -1
BITMAP
7800
7440
36D0
35D0
2400
2E00
0100
ENDCHAR
STARTCHAR Lslash
ENCODING 321
SWIDTH 428 0
DWIDTH 3 0
BBX 4 7 0 -1
BITMAP
74
74
7E
B8
34
2D
04
ENDCHAR
STARTCHAR lslash
ENCODING 322
SWIDTH 457 0
DWIDTH 4 0
BBX 4 7 0 -1
BITMAP
78
39
7F
B8
24
2E
01
ENDCHAR
STARTCHAR Nacute
ENCODING 323
SWIDTH 610 0
DWIDTH 5 0
BBX 5 9 0 -1
BITMAP
0180
0640
6640
7B00
7F00
3F00
3A00
2A00
1500
ENDCHAR
STARTCHAR nacute
ENCODING 324
SWIDTH 664 0
DWIDTH 5 0
BBX 5 9 0 -1
BITMAP
0180
0240
B680
7A80
7F40
3F40
3B00
3B00
1500
ENDCHAR
STARTCHAR Ncommaaccent
ENCODING 325
SWIDTH 610 0
DWIDTH 5 0
BBX 5 12 0 -6
BITMAP
6640
7B00
7F00
3F00
3A00
2A00
1500
0000
0900
0E00
0600
0100
ENDCHAR
STARTCHAR ncommaaccent
ENCODING 326
SWIDTH 664 0
DWIDTH 5 0
BBX 5 11 0 -5
BITMAP
B680
7A80
7F40
3F40
3B00
3B00
1500
0A00
0F00
0700
0200
ENDCHAR
STARTCHAR Ncaron
ENCODING 327
SWIDTH 610 0
DWIDTH 5 0
BBX 5 11 0 -1
BITMAP
1100
3700
2E00
0400
6640
7B00
7F00
3F00
3A00
2A00
1500
ENDCHAR
STARTCHAR ncaron
ENCODING 328
SWIDTH 664 0
DWIDTH 5 0
BBX 5 11 0 -1
BITMAP
1000
2640
1F00
0500
B680
7A80
7F40
3F40
3B00
3B00
1500
ENDCHAR
STARTCHAR Omacron
ENCODING 332
SWIDTH 504 0
DWIDTH 4 0
BBX 4 9 0 -1
BITMAP
14
68
29
BE
BE
AA
6A
7D
04
ENDCHAR
STARTCHAR omacron
ENCODING 333
SWIDTH 545 0
DWIDTH 4 0
BBX 5 9 0 -1
BITMAP
1400
2900
6D00
BF00
BF40
A700
6A00
3D00
0400
ENDCHAR
STARTCHAR Obreve
ENCODING 334
SWIDTH 504 0
DWIDTH 4 0
BBX 4 10 0 -1
BITMAP
51
3D
04
29
BE
BE
AA
6A
7D
04
ENDCHAR
STARTCHAR obreve
ENCODING 335
SWIDTH 545 0
DWIDTH 4 0
BBX 5 10 0 -1
BITMAP
2100
3E00
0400
6D00
BF00
BF40
A700
6A00
3D00
0400
ENDCHAR
STARTCHAR Ohungarumlaut
ENCODING 336
SWIDTH 504 0
DWIDTH 4 0
BBX 4 10 0 -1
BITMAP
36
99
00
29
BE
BE
AA
6A
7D
04
ENDCHAR
STARTCHAR ohungarumlaut
ENCODING 337
SWIDTH 545 0
DWIDTH 4 0
BBX 5 10 0 -1
BITMAP
3700
5900
0000
6D00
BF00
BF40
A700
6A00
3D00
0400
ENDCHAR
STARTCHAR OE
ENCODING 338
SWIDTH 789 0
DWIDTH 6 0
BBX 6 7 0 -1
BITMAP
2BE0
BFE0
BF90
AB80
6B40
7FC0
1540
ENDCHAR
STARTCHAR oe
ENCODING 339
SWIDTH 778 0
DWIDTH 6 0
BBX 6 7 0 -1
BITMAP
6EA0
BFD0
BFD0
6B40
6B80
3F80
0540
ENDCHAR
STARTCHAR Racute
ENCODING 340
SWIDTH 599 0
DWIDTH 5 0
BBX 5 9 0 -1
BITMAP
0180
0640
6E00
3F80
3B80
2B40
2F00
2B00
0100
ENDCHAR
STARTCHAR racute
ENCODING 341
SWIDTH 616 0
DWIDTH 5 0
BBX 5 9 0 -1
BITMAP
0180
0640
6E40
3F80
3B80
2B40
2F00
2B00
1100
ENDCHAR
STARTCHAR Rcommaaccent
ENCODING 342
SWIDTH 599 0
DWIDTH 5 0
BBX 5 11 0 -5
BITMAP
6E00
3F80
3B80
2B40
2F00
2B00
0100
1900
1E00
0600
0500
ENDCHAR
STARTCHAR rcommaaccent
ENCODING 343
SWIDTH 616 0
DWIDTH 5 0
BBX 5 11 0 -5
BITMAP
6E40
3F80
3B80
2B40
2F00
2B00
1100
0900
1E00
0600
0500
ENDCHAR
STARTCHAR Rcaron
ENCODING 344
SWIDTH 599 0
DWIDTH 5 0
BBX 5 11 0 -1
BITMAP
1100
3740
1E00
0400
6E00
3F80
3B80
2B40
2F00
2B00
0100
ENDCHAR
STARTCHAR rcaron
ENCODING 345
SWIDTH 616 0
DWIDTH 5 0
BBX 5 11 0 -1
BITMAP
1100
3740
1E00
0400
6E40
3F80
3B80
2B40
2F00
2B00
1100
ENDCHAR
STARTCHAR Sacute
ENCODING 346
SWIDTH 504 0
DWIDTH 4 0
BBX 5 9 0 -1
BITMAP
0240
0A40
2D00
BF00
BE00
B900
2E00
7D00
1400
ENDCHAR
STARTCHAR sacute
ENCODING 347
SWIDTH 481 0
DWIDTH 4 0
BBX 4 9 0 -1
BITMAP
02
09
29
BE
BE
B9
2C
7C
14
ENDCHAR
STARTCHAR Scircumflex
ENCODING 348
SWIDTH 504 0
DWIDTH 4 0
BBX 4 11 0 -1
BITMAP
14
3D
66
00
2D
BF
BE
B9
2E
7D
14
ENDCHAR
STARTCHAR scircumflex
ENCODING 349
SWIDTH 481 0
DWIDTH 4 0
BBX 4 11 0 -1
BITMAP
14
3D
66
00
29
BE
BE
B9
2C
7C
14
ENDCHAR
STARTCHAR Scedilla
ENCODING 350
SWIDTH 504 0
DWIDTH 4 0
BBX 4 9 0 -3
BITMAP
2D
BF
BE
B9
2E
7D
18
08
08
ENDCHAR
STARTCHAR scedilla
ENCODING 351
SWIDTH 481 0
DWIDTH 4 0
BBX 4 9 0 -3
BITMAP
29
BE
BE
B9
2C
7C
24
18
18
ENDCHAR
STARTCHAR Scaron
ENCODING 352
SWIDTH 503 0
DWIDTH 4 0
BBX 4 11 0 -1
BITMAP
96
7D
28
00
2D
BE
BE
B9
2E
7D
14
ENDCHAR
STARTCHAR scaron
ENCODING 353
SWIDTH 479 0
DWIDTH 4 0
BBX 4 11 0 -1
BITMAP
96
7D
28
00
29
BE
BE
B9
2C
7C
14
ENDCHAR
STARTCHAR Tcommaaccent
ENCODING 354
SWIDTH 622 0
DWIDTH 5 0
BBX 5 10 0 -4
BITMAP
6E40
7F40
3F40
0D00
0D00
0D00
0800
0800
0600
0500
ENDCHAR
STARTCHAR tcommaaccent
ENCODING 355
SWIDTH 683 0
DWIDTH 5 0
BBX 5 10 0 -4
BITMAP
7F80
7F80
3F80
0A00
0A00
0A00
0500
0500
0600
0600
ENDCHAR
STARTCHAR Tcaron
ENCODING 356
SWIDTH 622 0
DWIDTH 5 0
BBX 5 11 0 -1
BITMAP
1100
3700
2E00
0400
6E40
7F40
3F40
0D00
0D00
0D00
0800
ENDCHAR
STARTCHAR tcaron
ENCODING 357
SWIDTH 622 0
DWIDTH 5 0
BBX 5 11 0 -1
BITMAP
1100
3740
1E00
0400
6E40
7F40
3F40
0D00
0D00
0D00
0800
ENDCHAR
STARTCHAR Utilde
ENCODING 360
SWIDTH 637 0
DWIDTH 5 0
BBX 5 8 0 0
BITMAP
7B00
1500
7640
7740
3740
3700
3B00
2A00
ENDCHAR
STARTCHAR utilde
ENCODING 361
SWIDTH 708 0
DWIDTH 6 0
BBX 6 8 0 0
BITMAP
3B40
1500
7590
7AC0
3A80
3A80
2A40
1B40
ENDCHAR
STARTCHAR Umacron
ENCODING 362
SWIDTH 637 0
DWIDTH 5 0
BBX 5 8 0 0
BITMAP
1500
1A00
7640
7740
3740
3700
3B00
2A00
ENDCHAR
STARTCHAR umacron
ENCODING 363
SWIDTH 708 0
DWIDTH 6 0
BBX 6 8 0 0
BITMAP
0500
1A00
7590
7AC0
3A80
3A80
2A40
1B40
ENDCHAR
STARTCHAR Ubreve
ENCODING 364
SWIDTH 637 0
DWIDTH 5 0
BBX 5 9 0 0
BITMAP
1500
1F00
0100
7640
7740
3740
3700
3B00
2A00
ENDCHAR
STARTCHAR ubreve
ENCODING 365
SWIDTH 708 0
DWIDTH 6 0
BBX 6 9 0 0
BITMAP
1540
0F40
0100
7590
7AC0
3A80
3A80
2A40
1B40
ENDCHAR
STARTCHAR Uring
ENCODING 366
SWIDTH 637 0
DWIDTH 5 0
BBX 5 9 0 0
BITMAP
0900
1600
0900
7640
7740
3740
3700
3B00
2A00
ENDCHAR
STARTCHAR uring
ENCODING 367
SWIDTH 708 0
DWIDTH 6 0
BBX 6 9 0 0
BITMAP
0500
0A00
0500
7590
7AC0
3A80
3A80
2A40
1B40
ENDCHAR
STARTCHAR Uhungarumlaut
ENCODING 368
SWIDTH 637 0
DWIDTH 5 0
BBX 5 9 0 0
BITMAP
2A40
2600
0000
7640
7740
3740
3700
3B00
2A00
ENDCHAR
STARTCHAR uhungarumlaut
ENCODING 369
SWIDTH 708 0
DWIDTH 6 0
BBX 6 9 0 0
BITMAP
1D80
2600
0000
7590
7AC0
3A80
3A80
2A40
1B40
ENDCHAR
STARTCHAR Uogonek
ENCODING 370
SWIDTH 637 0
DWIDTH 5 0
BBX 5 8 0 -2
BITMAP
7640
7740
3740
3700
3B00
2E00
0900
0740
ENDCHAR
STARTCHAR uogonek
ENCODING 371
SWIDTH 662 0
DWIDTH 5 0
BBX 6 8 0 -2
BITMAP
7690
7AC0
3A80
3A80
2B40
1F40
0800
0740
ENDCHAR
STARTCHAR Wcircumflex
ENCODING 372
SWIDTH 777 0
DWIDTH 6 0
BBX 6 10 0 0
BITMAP
0500
0F40
1580
0000
66A0
3BD0
2F80
1F80
0E40
0A00
ENDCHAR
STARTCHAR wcircumflex
ENCODING 373
SWIDTH 704 0
DWIDTH 6 0
BBX 6 10 0 0
BITMAP
0500
1F00
2640
0000
6590
3AC0
2F80
1F40
0F40
0A00
ENDCHAR
STARTCHAR Ycircumflex
ENCODING 374
SWIDTH 688 0
DWIDTH 6 0
BBX 6 10 0 0
BITMAP
0500
1F00
2640
0000
7690
1F80
0F00
0700
0700
0600
ENDCHAR
STARTCHAR ycircumflex
ENCODING 375
SWIDTH 604 0
DWIDTH 5 0
BBX 5 11 0 -1
BITMAP
0400
2D00
6700
0000
7640
2E00
1D00
0D00
0D00
0C00
0400
ENDCHAR
STARTCHAR Ydieresis
ENCODING 376
SWIDTH 688 0
DWIDTH 6 0
BBX 6 9 0 0
BITMAP
1140
3780
2540
7690
1F80
0F00
0700
0700
0600
ENDCHAR
STARTCHAR Zacute
ENCODING 377
SWIDTH 695 0
DWIDTH 6 0
BBX 6 8 0 0
BITMAP
0090
0290
7F90
7FC0
3F40
0A00
1C00
2E00
ENDCHAR
STARTCHAR zacute
ENCODING 378
SWIDTH 622 0
DWIDTH 5 0
BBX 5 8 0 0
BITMAP
0180
0640
7F40
7F40
3F00
0D00
0800
1E00
ENDCHAR
STARTCHAR Zdotaccent
ENCODING 379
SWIDTH 695 0
DWIDTH 6 0
BBX 6 10 0 0
BITMAP
0500
0F00
0F00
0000
7F90
7FC0
3F40
0A00
1C00
2E00
ENDCHAR
STARTCHAR zdotaccent
ENCODING 380
SWIDTH 622 0
DWIDTH 5 0
BBX 5 10 0 0
BITMAP
0400
2D00
1D00
0000
7F40
7F40
3F00
0D00
0800
1E00
ENDCHAR
STARTCHAR Zcaron
ENCODING 381
SWIDTH 693 0
DWIDTH 6 0
BBX 6 10 0 0
BITMAP
2540
1F00
0A00
0000
7F90
7FC0
3F40
0A00
1C00
2E00
ENDCHAR
STARTCHAR zcaron
ENCODING 382
SWIDTH 621 0
DWIDTH 5 0
BBX 5 10 0 0
BITMAP
3200
2E00
1900
0000
7F40
7F40
3F00
0D00
0800
1E00
ENDCHAR
STARTCHAR DZ
ENCODING 497
SWIDTH 194 0
DWIDTH 2 0
BBX 1 1 0 0
BITMAP
00
ENDCHAR
STARTCHAR Dz
ENCODING 498
SWIDTH 194 0
DWIDTH 2 0
BBX 1 1 0 0
BITMAP
00
ENDCHAR
STARTCHAR dotlessj
ENCODING 567
SWIDTH 458 0
DWIDTH 4 0
BBX 4 6 0 0
BITMAP
29
2C
2C
1C
D8
B8
ENDCHAR
STARTCHAR circumflex
ENCODING 710
SWIDTH 528 0
DWIDTH 4 0
BBX 4 3 0 6
BITMAP
14
3D
66
ENDCHAR
STARTCHAR caron
ENCODING 711
SWIDTH 486 0
DWIDTH 4 0
BBX 4 4 0 5
BITMAP
41
AA
7C
14
ENDCHAR
STARTCHAR breve
ENCODING 728
SWIDTH 464 0
DWIDTH 4 0
BBX 3 3 0 -1
BITMAP
54
7C
04
ENDCHAR
STARTCHAR dotaccent
ENCODING 729
SWIDTH 388 0
DWIDTH 3 0
BBX 3 3 0 2
BITMAP
10
78
78
ENDCHAR
STARTCHAR ring
ENCODING 730
SWIDTH 370 0
DWIDTH 3 0
BBX 3 3 0 2
BITMAP
20
94
60
ENDCHAR
STARTCHAR ogonek
ENCODING 731
SWIDTH 360 0
DWIDTH 3 0
BBX 3 3 0 0
BITMAP
50
90
74
ENDCHAR
STARTCHAR tilde
ENCODING 732
SWIDTH 535 0
DWIDTH 4 0
BBX 4 2 0 -1
BITMAP
6E
25
ENDCHAR
STARTCHAR hungarumlaut
ENCODING 733
SWIDTH 554 0
DWIDTH 4 0
BBX 4 2 0 6
BITMAP
37
59
ENDCHAR
STARTCHAR dotaccentcmb
ENCODING 775
SWIDTH 396 0
DWIDTH 3 0
BBX 3 3 0 3
BITMAP
54
78
78
ENDCHAR
STARTCHAR uni030F
ENCODING 783
SWIDTH 549 0
DWIDTH 4 0
BBX 4 2 0 6
BITMAP
A9
26
ENDCHAR
STARTCHAR uni0311
ENCODING 785
SWIDTH 490 0
DWIDTH 4 0
BBX 4 2 0 3
BITMAP
3C
69
ENDCHAR
STARTCHAR uni0326
ENCODING 806
SWIDTH 360 0
DWIDTH 3 0
BBX 3 4 0 -1
BITMAP
64
74
24
14
ENDCHAR
STARTCHAR endash
ENCODING 8211
SWIDTH 478 0
DWIDTH 4 0
BBX 4 2 0 2
BITMAP
79
68
ENDCHAR
STARTCHAR emdash
ENCODING 8212
SWIDTH 567 0
DWIDTH 5 0
BBX 4 2 0 2
BITMAP
6E
6A
ENDCHAR
STARTCHAR quoteleft
ENCODING 8216
SWIDTH 373 0
DWIDTH 3 0
BBX 3 4 0 2
BITMAP
50
64
B8
74
ENDCHAR
STARTCHAR quoteright
ENCODING 8217
SWIDTH 369 0
DWIDTH 3 0
BBX 3 4 0 2
BITMAP
64
B4
64
24
ENDCHAR
STARTCHAR quotesinglbase
ENCODING 8218
SWIDTH 369 0
DWIDTH 3 0
BBX 3 4 0 2
BITMAP
64
B4
64
24
ENDCHAR
STARTCHAR quotedblleft
ENCODING 8220
SWIDTH 687 0
DWIDTH 6 0
BBX 5 4 0 2
BITMAP
5200
6740
BBC0
7BC0
ENDCHAR
STARTCHAR quotedblright
ENCODING 8221
SWIDTH 677 0
DWIDTH 5 0
BBX 5 4 0 2
BITMAP
B680
B7C0
65C0
2480
ENDCHAR
STARTCHAR quotedblbase
ENCODING 8222
SWIDTH 697 0
DWIDTH 6 0
BBX 5 5 0 -3
BITMAP
5540
B7C0
B6C0
1480
1040
ENDCHAR
STARTCHAR ellipsis
ENCODING 8230
SWIDTH 1462 0
DWIDTH 12 0
BBX 12 3 0 0
BITMAP
642829
74382D
642418
ENDCHAR
STARTCHAR guilsinglleft
ENCODING 8249
SWIDTH 459 0
DWIDTH 4 0
BBX 3 5 0 0
BITMAP
2C
74
B0
28
04
ENDCHAR
STARTCHAR guilsinglright
ENCODING 8250
SWIDTH 432 0
DWIDTH 3 0
BBX 3 5 0 0
BITMAP
74
28
2C
74
50
ENDCHAR
STARTCHAR fraction
ENCODING 8260
SWIDTH 371 0
DWIDTH 3 0
BBX 3 6 0 0
BITMAP
B8
74
74
34
30
30
ENDCHAR
STARTCHAR Euro
ENCODING 8364
SWIDTH 587 0
DWIDTH 5 0
BBX 5 7 0 -1
BITMAP
2E00
3F40
3F40
7600
7A00
2E00
0400
ENDCHAR
STARTCHAR trademark
ENCODING 8482
SWIDTH 785 0
DWIDTH 6 0
BBX 6 4 0 2
BITMAP
BAA0
76E0
22A0
2150
ENDCHAR
STARTCHAR minus
ENCODING 8722
SWIDTH 478 0
DWIDTH 4 0
BBX 4 2 0 2
BITMAP
79
68
ENDCHAR
STARTCHAR commaaccent
ENCODING 63171
SWIDTH 360 0
DWIDTH 3 0
BBX 3 4 0 -1
BITMAP
64
B4
64
14
ENDCHAR
STARTCHAR .notdef
ENCODING -1
SWIDTH 365 0
DWIDTH 3 0
BBX 3 6 0 0
BITMAP
50
44
44
44
44
54
ENDCHAR
STARTCHAR .null
ENCODING -1
SWIDTH 0 0
DWIDTH 0 0
BBX 1 1 0 0
BITMAP
00
ENDCHAR
STARTCHAR nonmarkingreturn
ENCODING -1
SWIDTH 333 0
DWIDTH 3 0
BBX 1 1 0 0
BITMAP
00
ENDCHAR
ENDFONT
